999
"DXF R12 Output" (www.mydxf.blogspot.com)
 0 
SECTION
 2 
HEADER
 9 
$ACADVER
 1 
AC1009
 9 
$EXTMIN
 10 
 0 
 20 
 0 
 9 
$EXTMAX
 10 
 8.5 
 20 
 11 
 0 
ENDSEC
 0 
SECTION
 2 
ENTITIES
0
LINE
8
Layer 1
10
7.327550
20
2.381290
11
7.408327
21
2.662118
0
LINE
8
Layer 1
10
7.408327
20
2.662118
11
7.408320
21
5.804620
0
LINE
8
Layer 1
10
7.408320
20
5.804620
11
7.327543
21
6.085422
0
LINE
8
Layer 1
10
7.327543
20
6.085422
11
4.233323
21
4.233342
0
LINE
8
Layer 1
10
4.233323
20
4.233342
11
7.327550
21
2.381290
0
LINE
8
Layer 1
10
4.508360
20
0.597098
11
7.133450
21
2.168348
0
LINE
8
Layer 1
10
7.133450
20
2.168348
11
7.327627
21
2.381258
0
LINE
8
Layer 1
10
7.327627
20
2.381258
11
4.233407
21
4.233338
0
LINE
8
Layer 1
10
4.233407
20
4.233338
11
1.139207
21
2.381258
0
LINE
8
Layer 1
10
1.139207
20
2.381258
11
1.333382
21
2.168348
0
LINE
8
Layer 1
10
1.333382
20
2.168348
11
3.958452
21
0.597098
0
LINE
8
Layer 1
10
3.958452
20
0.597098
11
4.508361
21
0.597098
0
LINE
8
Layer 1
10
4.508361
20
0.597098
11
4.508360
21
0.597098
0
LINE
8
Layer 1
10
7.327550
20
6.085430
11
7.133373
21
6.298353
0
LINE
8
Layer 1
10
7.133373
20
6.298353
11
4.508283
21
7.869603
0
LINE
8
Layer 1
10
4.508283
20
7.869603
11
3.958374
21
7.869603
0
LINE
8
Layer 1
10
3.958374
20
7.869603
11
1.333294
21
6.298353
0
LINE
8
Layer 1
10
1.333294
20
6.298353
11
1.058334
21
5.804617
0
LINE
8
Layer 1
10
1.058334
20
5.804617
11
1.058330
21
2.662090
0
LINE
8
Layer 1
10
1.058330
20
2.662090
11
1.139115
21
2.381262
0
LINE
8
Layer 1
10
1.139115
20
2.381262
11
4.233325
21
4.233342
0
LINE
8
Layer 1
10
4.233325
20
4.233342
11
7.327550
21
6.085430
0
LINE
8
Layer 1
10
4.243510
20
2.116680
11
3.416440
21
2.283281
0
LINE
8
Layer 1
10
3.416440
20
2.283281
11
2.740307
21
2.737338
0
LINE
8
Layer 1
10
2.740307
20
2.737338
11
2.284064
21
3.410231
0
LINE
8
Layer 1
10
2.284064
20
3.410231
11
2.116660
21
4.233340
0
LINE
8
Layer 1
10
2.116660
20
4.233340
11
2.284064
21
5.056449
0
LINE
8
Layer 1
10
2.284064
20
5.056449
11
2.740309
21
5.729342
0
LINE
8
Layer 1
10
2.740309
20
5.729342
11
3.416441
21
6.183399
0
LINE
8
Layer 1
10
3.416441
20
6.183399
11
4.243510
21
6.350000
0
LINE
8
Layer 1
10
4.243510
20
6.350000
11
5.288250
21
6.075863
0
LINE
8
Layer 1
10
5.288250
20
6.075863
11
6.063970
21
5.328230
0
LINE
8
Layer 1
10
6.063970
20
5.328230
11
5.153143
21
4.781945
0
LINE
8
Layer 1
10
5.153143
20
4.781945
11
4.765208
21
5.154924
0
LINE
8
Layer 1
10
4.765208
20
5.154924
11
4.243507
21
5.291664
0
LINE
8
Layer 1
10
4.243507
20
5.291664
11
3.829964
21
5.208363
0
LINE
8
Layer 1
10
3.829964
20
5.208363
11
3.491904
21
4.981335
0
LINE
8
Layer 1
10
3.491904
20
4.981335
11
3.263793
21
4.644888
0
LINE
8
Layer 1
10
3.263793
20
4.644888
11
3.180097
21
4.233334
0
LINE
8
Layer 1
10
3.180097
20
4.233334
11
3.263793
21
3.821780
0
LINE
8
Layer 1
10
3.263793
20
3.821780
11
3.491905
21
3.485333
0
LINE
8
Layer 1
10
3.491905
20
3.485333
11
3.829965
21
3.258305
0
LINE
8
Layer 1
10
3.829965
20
3.258305
11
4.243507
21
3.175004
0
LINE
8
Layer 1
10
4.243507
20
3.175004
11
4.763945
21
3.311016
0
LINE
8
Layer 1
10
4.763945
20
3.311016
11
5.151609
21
3.682157
0
LINE
8
Layer 1
10
5.151609
20
3.682157
11
6.064367
21
3.139047
0
LINE
8
Layer 1
10
6.064367
20
3.139047
11
5.288566
21
2.390972
0
LINE
8
Layer 1
10
5.288566
20
2.390972
11
4.243507
21
2.116667
0
LINE
8
Layer 1
10
4.243507
20
2.116667
11
4.243510
21
2.116680
0
LINE
8
Layer 1
10
6.614600
20
5.027090
11
6.614600
21
4.763200
0
LINE
8
Layer 1
10
6.614600
20
4.763200
11
6.085380
21
4.763200
0
LINE
8
Layer 1
10
6.085380
20
4.763200
11
6.085380
21
5.027090
0
LINE
8
Layer 1
10
6.085380
20
5.027090
11
5.820850
21
5.027090
0
LINE
8
Layer 1
10
5.820850
20
5.027090
11
5.820850
21
4.763200
0
LINE
8
Layer 1
10
5.820850
20
4.763200
11
5.556240
21
4.763200
0
LINE
8
Layer 1
10
5.556240
20
4.763200
11
5.556240
21
4.497930
0
LINE
8
Layer 1
10
5.556240
20
4.497930
11
5.820850
21
4.497930
0
LINE
8
Layer 1
10
5.820850
20
4.497930
11
5.820850
21
3.970130
0
LINE
8
Layer 1
10
5.820850
20
3.970130
11
5.556240
21
3.970130
0
LINE
8
Layer 1
10
5.556240
20
3.970130
11
5.556240
21
3.704180
0
LINE
8
Layer 1
10
5.556240
20
3.704180
11
5.820850
21
3.704180
0
LINE
8
Layer 1
10
5.820850
20
3.704180
11
5.820850
21
3.439590
0
LINE
8
Layer 1
10
5.820850
20
3.439590
11
6.085380
21
3.439590
0
LINE
8
Layer 1
10
6.085380
20
3.439590
11
6.085406
21
3.704173
0
LINE
8
Layer 1
10
6.085406
20
3.704173
11
6.614600
21
3.704180
0
LINE
8
Layer 1
10
6.614600
20
3.704180
11
6.614600
21
3.439590
0
LINE
8
Layer 1
10
6.614600
20
3.439590
11
6.879130
21
3.439590
0
LINE
8
Layer 1
10
6.879130
20
3.439590
11
6.879130
21
3.704180
0
LINE
8
Layer 1
10
6.879130
20
3.704180
11
7.143740
21
3.704180
0
LINE
8
Layer 1
10
7.143740
20
3.704180
11
7.143740
21
3.968760
0
LINE
8
Layer 1
10
7.143740
20
3.968760
11
6.879130
21
3.968760
0
LINE
8
Layer 1
10
6.879130
20
3.968760
11
6.879130
21
4.497930
0
LINE
8
Layer 1
10
6.879130
20
4.497930
11
7.143740
21
4.497930
0
LINE
8
Layer 1
10
7.143740
20
4.497930
11
7.143740
21
4.763200
0
LINE
8
Layer 1
10
7.143740
20
4.763200
11
6.879130
21
4.763200
0
LINE
8
Layer 1
10
6.879130
20
4.763200
11
6.879130
21
5.027090
0
LINE
8
Layer 1
10
6.879130
20
5.027090
11
6.614600
21
5.027090
0
LINE
8
Layer 1
10
6.614600
20
3.968760
11
6.614600
21
4.497930
0
LINE
8
Layer 1
10
6.614600
20
4.497930
11
6.085380
21
4.497930
0
LINE
8
Layer 1
10
6.085380
20
4.497930
11
6.085380
21
3.970130
0
LINE
8
Layer 1
10
6.085380
20
3.970130
11
6.614600
21
3.968760
 0 
ENDSEC
 0 
EOF