999
"DXF R12 Output" (www.mydxf.blogspot.com)
 0 
SECTION
 2 
HEADER
 9 
$ACADVER
 1 
AC1009
 9 
$EXTMIN
 10 
 0 
 20 
 0 
 9 
$EXTMAX
 10 
 8.5 
 20 
 11 
 0 
ENDSEC
 0 
SECTION
 2 
ENTITIES
0
LINE
8
Layer 1
10
105.833000
20
127.000000
11
12.700000
21
127.000000
0
LINE
8
Layer 1
10
12.700000
20
127.000000
11
10.141244
21
126.741877
0
LINE
8
Layer 1
10
10.141244
20
126.741877
11
7.757670
21
126.001613
0
LINE
8
Layer 1
10
7.757670
20
126.001613
11
5.600437
21
124.830368
0
LINE
8
Layer 1
10
5.600437
20
124.830368
11
3.720706
21
123.279301
0
LINE
8
Layer 1
10
3.720706
20
123.279301
11
2.169637
21
121.399572
0
LINE
8
Layer 1
10
2.169637
20
121.399572
11
0.998390
21
119.242339
0
LINE
8
Layer 1
10
0.998390
20
119.242339
11
0.258124
21
116.858762
0
LINE
8
Layer 1
10
0.258124
20
116.858762
11
0.000000
21
114.300000
0
LINE
8
Layer 1
10
0.000000
20
114.300000
11
0.000000
21
21.167100
0
LINE
8
Layer 1
10
0.000000
20
21.167100
11
0.258123
21
18.608344
0
LINE
8
Layer 1
10
0.258123
20
18.608344
11
0.998387
21
16.224770
0
LINE
8
Layer 1
10
0.998387
20
16.224770
11
2.169632
21
14.067537
0
LINE
8
Layer 1
10
2.169632
20
14.067537
11
3.720699
21
12.187806
0
LINE
8
Layer 1
10
3.720699
20
12.187806
11
5.600428
21
10.636737
0
LINE
8
Layer 1
10
5.600428
20
10.636737
11
7.757661
21
9.465490
0
LINE
8
Layer 1
10
7.757661
20
9.465490
11
10.141238
21
8.725224
0
LINE
8
Layer 1
10
10.141238
20
8.725224
11
12.700000
21
8.467100
0
LINE
8
Layer 1
10
12.700000
20
8.467100
11
105.833000
21
8.467160
0
LINE
8
Layer 1
10
105.833000
20
8.467160
11
108.391756
21
8.725283
0
LINE
8
Layer 1
10
108.391756
20
8.725283
11
110.775330
21
9.465547
0
LINE
8
Layer 1
10
110.775330
20
9.465547
11
112.932563
21
10.636792
0
LINE
8
Layer 1
10
112.932563
20
10.636792
11
114.812294
21
12.187859
0
LINE
8
Layer 1
10
114.812294
20
12.187859
11
116.363363
21
14.067588
0
LINE
8
Layer 1
10
116.363363
20
14.067588
11
117.534610
21
16.224821
0
LINE
8
Layer 1
10
117.534610
20
16.224821
11
118.274876
21
18.608398
0
LINE
8
Layer 1
10
118.274876
20
18.608398
11
118.533000
21
21.167160
0
LINE
8
Layer 1
10
118.533000
20
21.167160
11
118.533000
21
114.300000
0
LINE
8
Layer 1
10
118.533000
20
114.300000
11
118.274877
21
116.858756
0
LINE
8
Layer 1
10
118.274877
20
116.858756
11
117.534613
21
119.242330
0
LINE
8
Layer 1
10
117.534613
20
119.242330
11
116.363368
21
121.399563
0
LINE
8
Layer 1
10
116.363368
20
121.399563
11
114.812301
21
123.279294
0
LINE
8
Layer 1
10
114.812301
20
123.279294
11
112.932572
21
124.830363
0
LINE
8
Layer 1
10
112.932572
20
124.830363
11
110.775339
21
126.001610
0
LINE
8
Layer 1
10
110.775339
20
126.001610
11
108.391762
21
126.741876
0
LINE
8
Layer 1
10
108.391762
20
126.741876
11
105.833000
21
127.000000
0
LINE
8
Layer 1
10
105.833000
20
127.000000
11
105.833000
21
127.000000
0
LINE
8
Layer 1
10
73.368700
20
25.480000
11
72.599858
21
25.410340
0
LINE
8
Layer 1
10
72.599858
20
25.410340
11
71.955661
21
25.483307
0
LINE
8
Layer 1
10
71.955661
20
25.483307
11
71.013912
21
25.962864
0
LINE
8
Layer 1
10
71.013912
20
25.962864
11
70.488883
21
26.730153
0
LINE
8
Layer 1
10
70.488883
20
26.730153
11
70.326000
21
27.596660
0
LINE
8
Layer 1
10
70.326000
20
27.596660
11
70.378917
21
42.228060
0
LINE
8
Layer 1
10
70.378917
20
42.228060
11
70.138725
21
45.045041
0
LINE
8
Layer 1
10
70.138725
20
45.045041
11
69.489257
21
47.321282
0
LINE
8
Layer 1
10
69.489257
20
47.321282
11
68.537171
21
49.081588
0
LINE
8
Layer 1
10
68.537171
20
49.081588
11
67.389127
21
50.350760
0
LINE
8
Layer 1
10
67.389127
20
50.350760
11
71.063832
21
50.799827
0
LINE
8
Layer 1
10
71.063832
20
50.799827
11
74.661023
21
51.452913
0
LINE
8
Layer 1
10
74.661023
20
51.452913
11
78.053576
21
52.489229
0
LINE
8
Layer 1
10
78.053576
20
52.489229
11
79.633386
21
53.207104
0
LINE
8
Layer 1
10
79.633386
20
53.207104
11
81.114365
21
54.087991
0
LINE
8
Layer 1
10
81.114365
20
54.087991
11
82.480623
21
55.154293
0
LINE
8
Layer 1
10
82.480623
20
55.154293
11
83.716269
21
56.428412
0
LINE
8
Layer 1
10
83.716269
20
56.428412
11
84.805413
21
57.932748
0
LINE
8
Layer 1
10
84.805413
20
57.932748
11
85.732163
21
59.689704
0
LINE
8
Layer 1
10
85.732163
20
59.689704
11
86.480630
21
61.721682
0
LINE
8
Layer 1
10
86.480630
20
61.721682
11
87.034923
21
64.051082
0
LINE
8
Layer 1
10
87.034923
20
64.051082
11
87.379152
21
66.700308
0
LINE
8
Layer 1
10
87.379152
20
66.700308
11
87.497427
21
69.691760
0
LINE
8
Layer 1
10
87.497427
20
69.691760
11
87.418052
21
71.390724
0
LINE
8
Layer 1
10
87.418052
20
71.390724
11
87.184888
21
72.900242
0
LINE
8
Layer 1
10
87.184888
20
72.900242
11
86.805377
21
74.256591
0
LINE
8
Layer 1
10
86.805377
20
74.256591
11
86.286959
21
75.496046
0
LINE
8
Layer 1
10
86.286959
20
75.496046
11
84.863172
21
77.769382
0
LINE
8
Layer 1
10
84.863172
20
77.769382
11
82.973057
21
80.010460
0
LINE
8
Layer 1
10
82.973057
20
80.010460
11
83.431115
21
81.495020
0
LINE
8
Layer 1
10
83.431115
20
81.495020
11
83.819721
21
84.108187
0
LINE
8
Layer 1
10
83.819721
20
84.108187
11
83.842251
21
85.775211
0
LINE
8
Layer 1
10
83.842251
20
85.775211
11
83.672546
21
87.649041
0
LINE
8
Layer 1
10
83.672546
20
87.649041
11
83.252315
21
89.704563
0
LINE
8
Layer 1
10
83.252315
20
89.704563
11
82.523266
21
91.916660
0
LINE
8
Layer 1
10
82.523266
20
91.916660
11
81.781407
21
92.050961
0
LINE
8
Layer 1
10
81.781407
20
92.050961
11
80.947811
21
92.039805
0
LINE
8
Layer 1
10
80.947811
20
92.039805
11
79.082455
21
91.656625
0
LINE
8
Layer 1
10
79.082455
20
91.656625
11
77.081294
21
90.918118
0
LINE
8
Layer 1
10
77.081294
20
90.918118
11
75.098428
21
89.975281
0
LINE
8
Layer 1
10
75.098428
20
89.975281
11
71.803970
21
88.080617
0
LINE
8
Layer 1
10
71.803970
20
88.080617
11
70.431866
21
87.180620
0
LINE
8
Layer 1
10
70.431866
20
87.180620
11
67.763296
21
87.825127
0
LINE
8
Layer 1
10
67.763296
20
87.825127
11
65.017829
21
88.288559
0
LINE
8
Layer 1
10
65.017829
20
88.288559
11
62.227706
21
88.568436
0
LINE
8
Layer 1
10
62.227706
20
88.568436
11
59.425166
21
88.662280
0
LINE
8
Layer 1
10
59.425166
20
88.662280
11
56.622631
21
88.568436
0
LINE
8
Layer 1
10
56.622631
20
88.568436
11
53.832517
21
88.288557
0
LINE
8
Layer 1
10
53.832517
20
88.288557
11
51.087052
21
87.825125
0
LINE
8
Layer 1
10
51.087052
20
87.825125
11
48.418466
21
87.180620
0
LINE
8
Layer 1
10
48.418466
20
87.180620
11
47.046355
21
88.080615
0
LINE
8
Layer 1
10
47.046355
20
88.080615
11
43.751888
21
89.975277
0
LINE
8
Layer 1
10
43.751888
20
89.975277
11
41.769019
21
90.918113
0
LINE
8
Layer 1
10
41.769019
20
90.918113
11
39.767860
21
91.656621
0
LINE
8
Layer 1
10
39.767860
20
91.656621
11
37.902509
21
92.039803
0
LINE
8
Layer 1
10
37.902509
20
92.039803
11
37.068917
21
92.050959
0
LINE
8
Layer 1
10
37.068917
20
92.050959
11
36.327066
21
91.916660
0
LINE
8
Layer 1
10
36.327066
20
91.916660
11
35.596929
21
89.713230
0
LINE
8
Layer 1
10
35.596929
20
89.713230
11
35.174061
21
87.663898
0
LINE
8
Layer 1
10
35.174061
20
87.663898
11
35.001100
21
85.793780
0
LINE
8
Layer 1
10
35.001100
20
85.793780
11
35.020685
21
84.127991
0
LINE
8
Layer 1
10
35.020685
20
84.127991
11
35.408053
21
81.509869
0
LINE
8
Layer 1
10
35.408053
20
81.509869
11
35.877275
21
80.010460
0
LINE
8
Layer 1
10
35.877275
20
80.010460
11
34.049172
21
77.769360
0
LINE
8
Layer 1
10
34.049172
20
77.769360
11
32.761812
21
75.496016
0
LINE
8
Layer 1
10
32.761812
20
75.496016
11
32.316259
21
74.256563
0
LINE
8
Layer 1
10
32.316259
20
74.256563
11
32.000311
21
72.900220
0
LINE
8
Layer 1
10
32.000311
20
72.900220
11
31.749785
21
69.691760
0
LINE
8
Layer 1
10
31.749785
20
69.691760
11
31.863008
21
66.713383
0
LINE
8
Layer 1
10
31.863008
20
66.713383
11
32.192961
21
64.073862
0
LINE
8
Layer 1
10
32.192961
20
64.073862
11
32.725073
21
61.751145
0
LINE
8
Layer 1
10
32.725073
20
61.751145
11
33.444770
21
59.723177
0
LINE
8
Layer 1
10
33.444770
20
59.723177
11
34.337479
21
57.967907
0
LINE
8
Layer 1
10
34.337479
20
57.967907
11
35.388628
21
56.463281
0
LINE
8
Layer 1
10
35.388628
20
56.463281
11
36.583644
21
55.187245
0
LINE
8
Layer 1
10
36.583644
20
55.187245
11
37.907953
21
54.117747
0
LINE
8
Layer 1
10
37.907953
20
54.117747
11
39.346984
21
53.232735
0
LINE
8
Layer 1
10
39.346984
20
53.232735
11
40.886164
21
52.510154
0
LINE
8
Layer 1
10
40.886164
20
52.510154
11
44.206678
21
51.464074
0
LINE
8
Layer 1
10
44.206678
20
51.464074
11
47.752912
21
50.803084
0
LINE
8
Layer 1
10
47.752912
20
50.803084
11
51.408285
21
50.350760
0
LINE
8
Layer 1
10
51.408285
20
50.350760
11
50.490098
21
49.343276
0
LINE
8
Layer 1
10
50.490098
20
49.343276
11
49.678571
21
48.025736
0
LINE
8
Layer 1
10
49.678571
20
48.025736
11
49.030756
21
46.395658
0
LINE
8
Layer 1
10
49.030756
20
46.395658
11
48.603705
21
44.450560
0
LINE
8
Layer 1
10
48.603705
20
44.450560
11
47.490285
21
44.004127
0
LINE
8
Layer 1
10
47.490285
20
44.004127
11
46.086030
21
43.592731
0
LINE
8
Layer 1
10
46.086030
20
43.592731
11
44.467214
21
43.328303
0
LINE
8
Layer 1
10
44.467214
20
43.328303
11
42.710111
21
43.322774
0
LINE
8
Layer 1
10
42.710111
20
43.322774
11
40.890994
21
43.688074
0
LINE
8
Layer 1
10
40.890994
20
43.688074
11
39.086139
21
44.536135
0
LINE
8
Layer 1
10
39.086139
20
44.536135
11
38.212894
21
45.176178
0
LINE
8
Layer 1
10
38.212894
20
45.176178
11
37.371817
21
45.978886
0
LINE
8
Layer 1
10
37.371817
20
45.978886
11
36.572443
21
46.958250
0
LINE
8
Layer 1
10
36.572443
20
46.958250
11
35.824305
21
48.128260
0
LINE
8
Layer 1
10
35.824305
20
48.128260
11
34.843124
21
49.522901
0
LINE
8
Layer 1
10
34.843124
20
49.522901
11
33.754354
21
50.598803
0
LINE
8
Layer 1
10
33.754354
20
50.598803
11
32.631477
21
51.396893
0
LINE
8
Layer 1
10
32.631477
20
51.396893
11
31.547978
21
51.958099
0
LINE
8
Layer 1
10
31.547978
20
51.958099
11
29.793049
21
52.533567
0
LINE
8
Layer 1
10
29.793049
20
52.533567
11
29.077435
21
52.652630
0
LINE
8
Layer 1
10
29.077435
20
52.652630
11
27.834309
21
52.551861
0
LINE
8
Layer 1
10
27.834309
20
52.551861
11
27.223702
21
52.253275
0
LINE
8
Layer 1
10
27.223702
20
52.253275
11
27.101746
21
51.821983
0
LINE
8
Layer 1
10
27.101746
20
51.821983
11
27.324574
21
51.323099
0
LINE
8
Layer 1
10
27.324574
20
51.323099
11
28.229116
21
50.383001
0
LINE
8
Layer 1
10
28.229116
20
50.383001
11
28.786394
21
49.953880
0
LINE
8
Layer 1
10
28.786394
20
49.953880
11
29.815995
21
49.298932
0
LINE
8
Layer 1
10
29.815995
20
49.298932
11
30.752578
21
48.395318
0
LINE
8
Layer 1
10
30.752578
20
48.395318
11
32.292121
21
46.256330
0
LINE
8
Layer 1
10
32.292121
20
46.256330
11
33.295883
21
44.365389
0
LINE
8
Layer 1
10
33.295883
20
44.365389
11
33.654724
21
43.550970
0
LINE
8
Layer 1
10
33.654724
20
43.550970
11
34.244358
21
42.197455
0
LINE
8
Layer 1
10
34.244358
20
42.197455
11
35.029368
21
41.070864
0
LINE
8
Layer 1
10
35.029368
20
41.070864
11
35.977545
21
40.151935
0
LINE
8
Layer 1
10
35.977545
20
40.151935
11
37.056683
21
39.421405
0
LINE
8
Layer 1
10
37.056683
20
39.421405
11
38.234575
21
38.860012
0
LINE
8
Layer 1
10
38.234575
20
38.860012
11
39.479012
21
38.448493
0
LINE
8
Layer 1
10
39.479012
20
38.448493
11
42.038696
21
37.998030
0
LINE
8
Layer 1
10
42.038696
20
37.998030
11
44.478077
21
37.915916
0
LINE
8
Layer 1
10
44.478077
20
37.915916
11
46.539498
21
38.048052
0
LINE
8
Layer 1
10
46.539498
20
38.048052
11
48.497824
21
38.338680
0
LINE
8
Layer 1
10
48.497824
20
38.338680
11
48.550740
21
27.596580
0
LINE
8
Layer 1
10
48.550740
20
27.596580
11
48.391577
21
26.730069
0
LINE
8
Layer 1
10
48.391577
20
26.730069
11
47.872747
21
25.962779
0
LINE
8
Layer 1
10
47.872747
20
25.962779
11
46.932238
21
25.483224
0
LINE
8
Layer 1
10
46.932238
20
25.483224
11
46.284476
21
25.410258
0
LINE
8
Layer 1
10
46.284476
20
25.410258
11
45.508040
21
25.479920
0
LINE
8
Layer 1
10
45.508040
20
25.479920
11
42.296919
21
26.700535
0
LINE
8
Layer 1
10
42.296919
20
26.700535
11
39.218814
21
28.161871
0
LINE
8
Layer 1
10
39.218814
20
28.161871
11
36.283957
21
29.852263
0
LINE
8
Layer 1
10
36.283957
20
29.852263
11
33.502579
21
31.760044
0
LINE
8
Layer 1
10
33.502579
20
31.760044
11
30.884913
21
33.873550
0
LINE
8
Layer 1
10
30.884913
20
33.873550
11
28.441191
21
36.181113
0
LINE
8
Layer 1
10
28.441191
20
36.181113
11
26.181643
21
38.671069
0
LINE
8
Layer 1
10
26.181643
20
38.671069
11
24.116503
21
41.331750
0
LINE
8
Layer 1
10
24.116503
20
41.331750
11
22.256001
21
44.151491
0
LINE
8
Layer 1
10
22.256001
20
44.151491
11
20.610369
21
47.118627
0
LINE
8
Layer 1
10
20.610369
20
47.118627
11
19.189840
21
50.221490
0
LINE
8
Layer 1
10
19.189840
20
50.221490
11
18.004645
21
53.448416
0
LINE
8
Layer 1
10
18.004645
20
53.448416
11
17.065016
21
56.787737
0
LINE
8
Layer 1
10
17.065016
20
56.787737
11
16.381184
21
60.227789
0
LINE
8
Layer 1
10
16.381184
20
60.227789
11
15.963381
21
63.756905
0
LINE
8
Layer 1
10
15.963381
20
63.756905
11
15.821840
21
67.363420
0
LINE
8
Layer 1
10
15.821840
20
67.363420
11
16.036361
21
71.845955
0
LINE
8
Layer 1
10
16.036361
20
71.845955
11
16.667368
21
76.172997
0
LINE
8
Layer 1
10
16.667368
20
76.172997
11
17.696023
21
80.326098
0
LINE
8
Layer 1
10
17.696023
20
80.326098
11
19.103492
21
84.286809
0
LINE
8
Layer 1
10
19.103492
20
84.286809
11
20.870937
21
88.036682
0
LINE
8
Layer 1
10
20.870937
20
88.036682
11
22.979524
21
91.557267
0
LINE
8
Layer 1
10
22.979524
20
91.557267
11
25.410416
21
94.830117
0
LINE
8
Layer 1
10
25.410416
20
94.830117
11
28.144778
21
97.836782
0
LINE
8
Layer 1
10
28.144778
20
97.836782
11
31.163772
21
100.558815
0
LINE
8
Layer 1
10
31.163772
20
100.558815
11
34.448564
21
102.977765
0
LINE
8
Layer 1
10
34.448564
20
102.977765
11
37.980317
21
105.075184
0
LINE
8
Layer 1
10
37.980317
20
105.075184
11
41.740195
21
106.832625
0
LINE
8
Layer 1
10
41.740195
20
106.832625
11
45.709362
21
108.231637
0
LINE
8
Layer 1
10
45.709362
20
108.231637
11
49.868983
21
109.253773
0
LINE
8
Layer 1
10
49.868983
20
109.253773
11
54.200221
21
109.880583
0
LINE
8
Layer 1
10
54.200221
20
109.880583
11
58.684240
21
110.093620
0
LINE
8
Layer 1
10
58.684240
20
110.093620
11
63.180740
21
109.880585
0
LINE
8
Layer 1
10
63.180740
20
109.880585
11
67.547249
21
109.253777
0
LINE
8
Layer 1
10
67.547249
20
109.253777
11
71.761675
21
108.231646
0
LINE
8
Layer 1
10
71.761675
20
108.231646
11
75.801926
21
106.832639
0
LINE
8
Layer 1
10
75.801926
20
106.832639
11
79.645911
21
105.075204
0
LINE
8
Layer 1
10
79.645911
20
105.075204
11
83.271539
21
102.977791
0
LINE
8
Layer 1
10
83.271539
20
102.977791
11
86.656716
21
100.558847
0
LINE
8
Layer 1
10
86.656716
20
100.558847
11
89.779353
21
97.836820
0
LINE
8
Layer 1
10
89.779353
20
97.836820
11
92.617356
21
94.830159
0
LINE
8
Layer 1
10
92.617356
20
94.830159
11
95.148634
21
91.557311
0
LINE
8
Layer 1
10
95.148634
20
91.557311
11
97.351095
21
88.036726
0
LINE
8
Layer 1
10
97.351095
20
88.036726
11
99.202648
21
84.286851
0
LINE
8
Layer 1
10
99.202648
20
84.286851
11
100.681201
21
80.326135
0
LINE
8
Layer 1
10
100.681201
20
80.326135
11
101.764661
21
76.173025
0
LINE
8
Layer 1
10
101.764661
20
76.173025
11
102.430939
21
71.845971
0
LINE
8
Layer 1
10
102.430939
20
71.845971
11
102.657940
21
67.363420
0
LINE
8
Layer 1
10
102.657940
20
67.363420
11
102.525215
21
63.756615
0
LINE
8
Layer 1
10
102.525215
20
63.756615
11
102.123243
21
60.226703
0
LINE
8
Layer 1
10
102.123243
20
60.226703
11
101.461209
21
56.785468
0
LINE
8
Layer 1
10
101.461209
20
56.785468
11
100.548299
21
53.444692
0
LINE
8
Layer 1
10
100.548299
20
53.444692
11
99.393699
21
50.216157
0
LINE
8
Layer 1
10
99.393699
20
50.216157
11
98.006594
21
47.111645
0
LINE
8
Layer 1
10
98.006594
20
47.111645
11
96.396169
21
44.142938
0
LINE
8
Layer 1
10
96.396169
20
44.142938
11
94.571612
21
41.321820
0
LINE
8
Layer 1
10
94.571612
20
41.321820
11
92.542107
21
38.660072
0
LINE
8
Layer 1
10
92.542107
20
38.660072
11
90.316840
21
36.169477
0
LINE
8
Layer 1
10
90.316840
20
36.169477
11
87.904997
21
33.861816
0
LINE
8
Layer 1
10
87.904997
20
33.861816
11
85.315764
21
31.748873
0
LINE
8
Layer 1
10
85.315764
20
31.748873
11
82.558326
21
29.842430
0
LINE
8
Layer 1
10
82.558326
20
29.842430
11
79.641869
21
28.154268
0
LINE
8
Layer 1
10
79.641869
20
28.154268
11
76.575578
21
26.696171
0
LINE
8
Layer 1
10
76.575578
20
26.696171
11
73.368640
21
25.479920
0
LINE
8
Layer 1
10
73.368640
20
25.479920
11
73.368700
21
25.480000
0
LINE
8
Layer 1
10
47.413100
20
41.646000
11
46.728492
21
41.702224
0
LINE
8
Layer 1
10
46.728492
20
41.702224
11
46.381230
21
42.095791
0
LINE
8
Layer 1
10
46.381230
20
42.095791
11
46.569745
21
42.628264
0
LINE
8
Layer 1
10
46.569745
20
42.628264
11
47.174979
21
42.942457
0
LINE
8
Layer 1
10
47.174979
20
42.942457
11
47.859587
21
42.839931
0
LINE
8
Layer 1
10
47.859587
20
42.839931
11
48.206849
21
42.439749
0
LINE
8
Layer 1
10
48.206849
20
42.439749
11
48.038177
21
41.953578
0
LINE
8
Layer 1
10
48.038177
20
41.953578
11
47.413100
21
41.646000
0
LINE
8
Layer 1
10
47.413100
20
41.646000
11
47.413100
21
41.646000
0
LINE
8
Layer 1
10
44.899560
20
41.884125
11
44.634977
21
41.437641
0
LINE
8
Layer 1
10
44.634977
20
41.437641
11
43.973520
21
41.249126
0
LINE
8
Layer 1
10
43.973520
20
41.249126
11
43.265760
21
41.397954
0
LINE
8
Layer 1
10
43.265760
20
41.397954
11
42.994563
21
41.884125
0
LINE
8
Layer 1
10
42.994563
20
41.884125
11
43.259146
21
42.330609
0
LINE
8
Layer 1
10
43.259146
20
42.330609
11
43.920604
21
42.519124
0
LINE
8
Layer 1
10
43.920604
20
42.519124
11
44.598598
21
42.370296
0
LINE
8
Layer 1
10
44.598598
20
42.370296
11
44.817292
21
42.158216
0
LINE
8
Layer 1
10
44.817292
20
42.158216
11
44.899561
21
41.884125
0
LINE
8
Layer 1
10
44.899561
20
41.884125
11
44.899560
21
41.884125
0
LINE
8
Layer 1
10
41.274770
20
42.175166
11
40.861359
21
41.814672
0
LINE
8
Layer 1
10
40.861359
20
41.814672
11
40.189980
21
41.831208
0
LINE
8
Layer 1
10
40.189980
20
41.831208
11
39.591361
21
42.165244
0
LINE
8
Layer 1
10
39.591361
20
42.165244
11
39.449148
21
42.677874
0
LINE
8
Layer 1
10
39.449148
20
42.677874
11
39.862559
21
43.044983
0
LINE
8
Layer 1
10
39.862559
20
43.044983
11
40.533938
21
43.074748
0
LINE
8
Layer 1
10
40.533938
20
43.074748
11
41.152401
21
42.694410
0
LINE
8
Layer 1
10
41.152401
20
42.694410
11
41.289240
21
42.438509
0
LINE
8
Layer 1
10
41.289240
20
42.438509
11
41.274770
21
42.175166
0
LINE
8
Layer 1
10
41.274770
20
42.175166
11
41.274770
21
42.175166
0
LINE
8
Layer 1
10
38.020400
20
43.603916
11
37.511077
21
43.425322
0
LINE
8
Layer 1
10
37.511077
20
43.425322
11
36.882690
21
43.762666
0
LINE
8
Layer 1
10
36.882690
20
43.762666
11
36.515581
21
44.344749
0
LINE
8
Layer 1
10
36.515581
20
44.344749
11
36.644565
21
44.847456
0
LINE
8
Layer 1
10
36.644565
20
44.847456
11
37.153888
21
45.026049
0
LINE
8
Layer 1
10
37.153888
20
45.026049
11
37.782275
21
44.688706
0
LINE
8
Layer 1
10
37.782275
20
44.688706
11
38.119618
21
44.096701
0
LINE
8
Layer 1
10
38.119618
20
44.096701
11
38.020400
21
43.603916
0
LINE
8
Layer 1
10
38.020400
20
43.603916
11
38.020400
21
43.603916
0
LINE
8
Layer 1
10
35.612690
20
46.011626
11
35.143055
21
46.001704
0
LINE
8
Layer 1
10
35.143055
20
46.001704
11
34.633733
21
46.408500
0
LINE
8
Layer 1
10
34.633733
20
46.408500
11
34.415452
21
47.003811
0
LINE
8
Layer 1
10
34.415452
20
47.003811
11
34.633733
21
47.440370
0
LINE
8
Layer 1
10
34.633733
20
47.440370
11
35.143055
21
47.506516
0
LINE
8
Layer 1
10
35.143055
20
47.506516
11
35.612690
21
47.096412
0
LINE
8
Layer 1
10
35.612690
20
47.096412
11
35.830971
21
46.484564
0
LINE
8
Layer 1
10
35.830971
20
46.484564
11
35.612690
21
46.011622
0
LINE
8
Layer 1
10
35.612690
20
46.011622
11
35.612690
21
46.011626
0
LINE
8
Layer 1
10
33.892900
20
48.578086
11
33.449723
21
48.468946
0
LINE
8
Layer 1
10
33.449723
20
48.468946
11
32.966859
21
48.736836
0
LINE
8
Layer 1
10
32.966859
20
48.736836
11
32.715505
21
49.259387
0
LINE
8
Layer 1
10
32.715505
20
49.259387
11
32.861026
21
49.662876
0
LINE
8
Layer 1
10
32.861026
20
49.662876
11
33.304202
21
49.772016
0
LINE
8
Layer 1
10
33.304202
20
49.772016
11
33.787066
21
49.504126
0
LINE
8
Layer 1
10
33.787066
20
49.504126
11
34.038420
21
48.981575
0
LINE
8
Layer 1
10
34.038420
20
48.981575
11
33.892899
21
48.578086
0
LINE
8
Layer 1
10
33.892899
20
48.578086
11
33.892900
21
48.578086
0
LINE
8
Layer 1
10
32.120190
20
50.535996
11
31.819227
21
50.324330
0
LINE
8
Layer 1
10
31.819227
20
50.324330
11
31.379358
21
50.430163
0
LINE
8
Layer 1
10
31.379358
20
50.430163
11
31.012249
21
50.744355
0
LINE
8
Layer 1
10
31.012249
20
50.744355
11
30.982484
21
51.118079
0
LINE
8
Layer 1
10
30.982484
20
51.118079
11
31.263603
21
51.280136
0
LINE
8
Layer 1
10
31.263603
20
51.280136
11
31.723316
21
51.223912
0
LINE
8
Layer 1
10
31.723316
20
51.223912
11
32.090425
21
50.889876
0
LINE
8
Layer 1
10
32.090425
20
50.889876
11
32.120191
21
50.535996
0
LINE
8
Layer 1
10
32.120191
20
50.535996
11
32.120190
21
50.535996
 0 
ENDSEC
 0 
EOF